<svg width="125" height="40" viewBox="0 0 125 40" fill="none" xmlns="http://www.w3.org/2000/svg">
<path d="M16.5952 30.8909C16.2917 30.4982 16.1664 29.9929 16.2516 29.5045C16.3393 29.0005 16.6334 28.5795 17.0377 28.3189C16.8402 27.9821 16.7487 27.589 16.783 27.1948C16.8524 26.3972 17.3965 25.7585 18.1257 25.5421C17.9181 25.1875 17.8271 24.7718 17.8767 24.3591C17.9463 23.7775 18.2763 23.2842 18.7406 22.9873C18.5069 22.6802 18.3663 22.2986 18.3663 21.8837C18.3663 21.4792 18.5002 21.1045 18.7251 20.8003C18.6616 20.8036 18.5974 20.8055 18.5322 20.8055C17.9258 20.8055 17.3699 20.6549 16.8811 20.3628C16.7802 20.7401 16.6381 21.1623 16.4378 21.5856C15.9736 22.5673 15.3283 23.2941 14.5301 23.7531L11.5984 34.5804L16.0408 36.4944L17.4004 31.4733C17.0849 31.3595 16.8033 31.16 16.5952 30.8909Z" fill="#FF6600"/>
<path d="M30.155 10.4452L28.5993 10.0331L28.5988 10.035L26.6514 9.51939L26.239 11.0718C26.0691 11.4861 24.8313 11.5126 24.3869 11.3927C23.5072 11.1553 22.7948 10.5753 22.891 10.1088L23.2865 8.62007L19.8606 7.74312C15.8448 6.67966 11.726 9.06775 10.6609 13.0773L12.1792 13.4794C13.4084 8.93974 18.3469 10.7683 17.8856 12.4722L17.4664 14.0206L17.2117 14.9616L17.4906 15.3026L20.4644 18.983L20.5016 19.0291L21.2316 16.3334L21.2374 16.3349L21.5584 15.1266L21.5588 15.1254L21.6329 14.8461C21.7809 14.3935 22.6418 14.2295 23.5674 14.4793C24.0118 14.5992 25.0729 15.2381 25.0149 15.682L24.6025 17.2344L28.1054 18.1621L30.1548 10.4474L30.155 10.4452Z" fill="#FF6600"/>
<path d="M22.5156 20.6348C22.4941 20.6348 22.4724 20.6355 22.4505 20.6367C21.7929 20.6755 20.9695 20.7241 20.3004 20.7633C20.2439 20.7666 20.1865 20.77 20.1324 20.7731C19.5434 20.8073 19.0835 21.2944 19.0835 21.8835C19.0835 22.2156 19.2293 22.5105 19.4576 22.7133C19.5569 22.6972 19.6582 22.6874 19.7617 22.6874C19.7676 22.6874 19.7735 22.6879 19.7793 22.6879C19.8121 22.6882 19.845 22.6889 19.8781 22.691C20.5589 22.7323 21.4333 22.7849 22.1594 22.8284L22.6087 22.789C23.1668 22.7402 23.595 22.2734 23.595 21.7141C23.5952 21.1146 23.1077 20.6348 22.5156 20.6348Z" fill="#FF6600"/>
<path d="M22.2946 23.5537C22.2541 23.5513 22.2108 23.5487 22.1693 23.5461C21.433 23.5021 20.5321 23.4479 19.8345 23.4056C19.8101 23.404 19.7859 23.4033 19.7618 23.4033C19.7006 23.4033 19.6407 23.4092 19.5816 23.4183C19.4914 23.4322 19.4043 23.4558 19.3217 23.4892C18.9333 23.6456 18.6417 24.0026 18.5888 24.4439C18.5404 24.8474 18.7022 25.2231 18.9834 25.4702C18.9977 25.4705 19.0114 25.471 19.0258 25.4714C19.7137 25.4907 20.5326 25.5134 21.1924 25.5314C21.5417 25.5411 21.8791 25.6519 22.1671 25.8413L22.1898 25.842C22.2022 25.8423 22.2143 25.8425 22.2265 25.8425C22.805 25.8425 23.2959 25.4107 23.365 24.8331C23.4433 24.1786 22.9537 23.5933 22.2946 23.5537Z" fill="#FF6600"/>
<path d="M21.1723 26.2467C20.4554 26.2271 19.5533 26.2022 18.8329 26.1819C18.8017 26.181 18.7694 26.1801 18.7389 26.1791C18.7291 26.1788 18.7184 26.1786 18.7086 26.1783C18.6972 26.1779 18.6859 26.1777 18.6745 26.1777C18.0634 26.1777 17.5504 26.6447 17.4972 27.2562C17.4712 27.5547 17.5589 27.8348 17.7224 28.0569C17.8131 28.0426 17.9053 28.034 17.9997 28.034C18.0669 28.034 18.135 28.038 18.2022 28.0455C18.2416 28.05 18.2838 28.0548 18.3245 28.0595C18.9635 28.1323 19.7599 28.2224 20.3937 28.294C20.6458 28.3225 20.8862 28.4075 21.1003 28.5369H21.1418C21.7365 28.5364 22.2322 28.0822 22.2838 27.4907C22.3158 27.122 22.1695 26.7808 21.9183 26.5492C21.722 26.3687 21.4618 26.2546 21.1723 26.2467Z" fill="#FF6600"/>
<path d="M20.874 29.2536C20.7224 29.1206 20.5301 29.0304 20.3133 29.006C20.0171 28.9724 19.6845 28.9349 19.3493 28.8969C18.927 28.8491 18.5006 28.8007 18.1355 28.7591C18.1308 28.7586 18.1257 28.7579 18.121 28.7574C18.089 28.7538 18.0571 28.7527 18.0254 28.7519C18.0169 28.7517 18.0083 28.7505 17.9999 28.7505C17.8307 28.7505 17.6689 28.7918 17.5245 28.8646C17.2355 29.0105 17.0175 29.2856 16.9582 29.6266C16.8717 30.1242 17.1481 30.5949 17.5879 30.7807C17.6882 30.823 17.7969 30.8509 17.9118 30.8605L20.1108 31.0464C20.1403 31.0488 20.1694 31.0501 20.1983 31.0501C20.6929 31.0501 21.1232 30.6949 21.2092 30.2002C21.2731 29.8334 21.1332 29.4809 20.874 29.2536Z" fill="#FF6600"/>
<path d="M13.601 24.1472L13.7118 23.7342L13.8269 23.3051C14.2194 23.1345 14.5508 22.9017 14.8334 22.6336C16.2774 21.2639 16.405 18.9448 16.405 18.9448C17.0377 19.8412 17.8385 20.0896 18.5323 20.0896C19.3964 20.0896 20.0947 19.7037 20.0947 19.7037L16.7482 15.5617L16.7355 15.5459L12.3399 16.7338L9.15423 22.6403L8.77926 22.8399L8.40429 23.0395L5.08643 24.8059V25.4973C5.08643 27.8083 5.91977 29.9813 7.35589 31.6719L12.2648 29.1279L13.601 24.1472Z" fill="#FF6600"/>
<path d="M30.4815 5.04648V0.466778H27.9394V3.9751L18.5234 0L8.83264 4.09107L0 7.73807L0.724435 9.48698L2.84639 8.61089V9.22219V20.145V25.497C2.84639 25.6627 2.8507 25.8277 2.85759 25.9923C2.96202 28.4814 3.84982 30.8225 5.32747 32.7229C6.52354 34.261 8.1051 35.5108 9.97134 36.315L11.0078 36.7616L15.4503 38.6757L18.5234 40L27.0755 36.315C31.3999 34.4516 34.2005 30.1995 34.2005 25.497V20.145V9.22219V8.63016L36.2757 9.48698L37 7.73807L30.4815 5.04648ZM31.9603 9.22219V20.145V25.497C31.9603 29.3102 29.6945 32.7504 26.1879 34.2614L18.5234 37.5639L16.0408 36.4943L11.5984 34.5802L10.8588 34.2615C9.47729 33.6662 8.28966 32.7707 7.35602 31.6718C5.91973 29.9812 5.08656 27.8082 5.08656 25.4972V24.8059V20.1451V9.22237V8.1011L18.5234 2.42869L27.0669 6.03543L30.1796 7.34957V7.3494L31.9605 8.1011V9.22219H31.9603Z" fill="#FF6600"/>
<path d="M56.72 25.06H53.36V31H49.22V10.6H56.72C61.56 10.6 63.98 12.96 63.98 17.68C63.98 20.06 63.36 21.89 62.12 23.17C60.9 24.43 59.1 25.06 56.72 25.06ZM53.36 21.52H56.69C58.75 21.52 59.78 20.24 59.78 17.68C59.78 16.42 59.53 15.52 59.03 14.98C58.53 14.42 57.75 14.14 56.69 14.14H53.36V21.52ZM66.526 31V16H70.546V31H66.526ZM66.526 14.08V10H70.546V14.08H66.526ZM72.8204 16H77.1104L79.5104 20.65L81.9404 16H86.2304L81.9704 23.35L86.2304 31H81.9404L79.5104 26.41L77.1104 31H72.8204L76.9304 23.47L72.8204 16ZM88.8294 31V10.6H101.849V14.2H92.9694V20.2H100.229V23.8H92.9694V31H88.8294ZM104.407 31V16H108.427V31H104.407ZM104.407 14.08V10H108.427V14.08H104.407ZM110.701 16H114.991L117.391 20.65L119.821 16H124.111L119.851 23.35L124.111 31H119.821L117.391 26.41L114.991 31H110.701L114.811 23.47L110.701 16Z" fill="black"/>
</svg>
